<?xml version="1.0" encoding="UTF-8"?>
<svg version="1.1" xmlns="http://www.w3.org/2000/svg" width="512" height="512">
<path d="M0 0 C2.25866771 -0.00436177 4.51536056 -0.04068314 6.77368164 -0.07861328 C15.54341312 -0.14808708 21.90951124 0.27307288 28.98657227 6.01123047 C29.43258789 6.54232422 29.87860352 7.07341797 30.33813477 7.62060547 C31.03036133 8.40177734 31.03036133 8.40177734 31.73657227 9.19873047 C35.45456535 15.78218319 35.23548227 23.10082928 35.15844727 30.43310547 C35.15643311 31.34898438 35.15441895 32.26486328 35.15234375 33.20849609 C35.14196149 36.59591759 35.11403956 39.98326711 35.08813477 43.37060547 C35.04688477 50.96060547 35.00563477 58.55060547 34.96313477 66.37060547 C56.08313477 66.37060547 77.20313477 66.37060547 98.96313477 66.37060547 C98.84463184 50.23068232 98.84463184 50.23068232 98.69287109 34.09106445 C98.68410391 32.05794752 98.67646052 30.02482531 98.67016602 27.99169922 C98.64714417 26.4260321 98.64714417 26.4260321 98.62365723 24.82873535 C98.62103355 17.48857336 99.77562201 12.98841502 103.58813477 6.68310547 C110.66108241 -0.20371197 119.37063207 -0.29112234 128.76464844 -0.20581055 C130.89425002 -0.19193613 133.01944863 -0.22610745 135.14868164 -0.26416016 C143.25571236 -0.31096661 150.34371069 0.28410951 156.96313477 5.37060547 C160.98887217 10.29006456 163.09278954 14.89765949 163.07666016 21.30102539 C163.07653931 22.31579956 163.07641846 23.33057373 163.07629395 24.37609863 C163.07117798 25.44034058 163.06606201 26.50458252 163.06079102 27.60107422 C163.05978394 28.58096313 163.05877686 29.56085205 163.05773926 30.57043457 C163.05250479 34.23300343 163.03854354 37.89555562 163.02563477 41.55810547 C163.00500977 49.74623047 162.98438477 57.93435547 162.96313477 66.37060547 C184.08313477 66.37060547 205.20313477 66.37060547 226.96313477 66.37060547 C226.84476421 50.9789645 226.84476421 50.9789645 226.69287109 35.58764648 C226.68409981 33.64160661 226.6764574 31.69556119 226.67016602 29.74951172 C226.64714417 28.2639679 226.64714417 28.2639679 226.62365723 26.74841309 C226.62100611 19.63017713 227.25743321 12.76122311 231.83032227 7.03076172 C232.49290039 6.50353516 233.15547852 5.97630859 233.83813477 5.43310547 C234.49555664 4.88783203 235.15297852 4.34255859 235.83032227 3.78076172 C242.31996178 -0.51000727 249.0854453 0.0323518 256.57275391 0.05493164 C258.75873178 0.05808112 260.94334054 0.03464505 263.12915039 0.00927734 C278.74667171 -0.06442814 278.74667171 -0.06442814 284.98657227 5.01904297 C285.43258789 5.58880859 285.87860352 6.15857422 286.33813477 6.74560547 C287.03036133 7.59251953 287.03036133 7.59251953 287.73657227 8.45654297 C290.28384802 12.43159113 291.21350357 15.92129093 291.19018555 20.61987305 C291.19003448 21.64055374 291.18988342 22.66123444 291.18972778 23.71284485 C291.17940521 24.80260117 291.16908264 25.89235748 291.15844727 27.01513672 C291.15420242 28.70252205 291.15420242 28.70252205 291.14987183 30.42399597 C291.13869313 34.01047483 291.11359239 37.59670231 291.08813477 41.18310547 C291.078102 43.61734665 291.06897666 46.05159175 291.06079102 48.48583984 C291.03876133 54.44751389 291.00530651 60.40904172 290.96313477 66.37060547 C292.52040283 66.33918457 292.52040283 66.33918457 294.10913086 66.30712891 C298.00416981 66.23408589 301.89914974 66.18857513 305.79467773 66.15087891 C307.47251607 66.13090847 309.15028613 66.10372215 310.82788086 66.06884766 C322.01379878 65.84233115 330.58162804 66.19808184 340.21313477 72.49560547 C347.00033776 79.59131769 349.89158008 87.22325835 351.63500977 96.72998047 C352.00162615 98.56769875 352.36841309 100.40538495 352.73832321 102.24244308 C353.0148743 103.62001786 353.28903794 104.99807359 353.56108475 106.37654495 C355.38519458 115.6026515 357.40128634 124.78778267 359.39311409 133.97881889 C360.61982704 139.64490106 361.83855233 145.31270293 363.05859375 150.98022461 C363.57683502 153.38584647 364.09513629 155.79145541 364.61349487 158.197052 C364.87569195 159.4138628 365.13788902 160.6306736 365.40803146 161.88435745 C365.67371555 163.1173193 365.93939964 164.35028114 366.21313477 165.62060547 C366.61661573 167.49313051 366.61661573 167.49313051 367.02824783 169.40348434 C374.97461057 206.28073973 382.93866411 243.15412083 390.92856216 280.02197075 C392.5716692 287.60446042 394.21290058 295.18735289 395.85251999 302.77059746 C400.82872476 325.78389006 405.81866379 348.79334784 410.92788124 371.77752495 C412.22106282 377.60222866 413.50616181 383.42872203 414.79118252 389.2552309 C415.95720621 394.53653991 417.13767171 399.81432051 418.3304224 405.08965397 C419.047378 408.27634713 419.75044761 411.46598834 420.44979286 414.6565876 C420.76738674 416.091885 421.09064907 417.52594449 421.42061424 418.95844841 C423.9967458 430.15883672 427.08802144 444.75239277 421.28735352 455.41748047 C415.58895927 463.82219175 409.32029682 469.51238254 399.30608594 471.94305539 C395.05491889 472.7188235 390.81548504 472.65208272 386.5058136 472.63803101 C385.47753439 472.64256212 384.44925517 472.64709323 383.38981599 472.65176165 C379.95758505 472.66438297 376.52551324 472.66278676 373.09326172 472.66113281 C370.62731727 472.66711922 368.16137469 472.67392502 365.69543457 472.68148804 C359.70169721 472.69730616 353.70802201 472.70359555 347.71426956 472.70471279 C342.84321593 472.70566466 337.97217525 472.70978183 333.10112572 472.71611404 C319.28399302 472.73370998 305.46689133 472.74295475 291.64974735 472.7414531 C290.9058483 472.74137318 290.16194926 472.74129327 289.39550781 472.74121094 C288.2782947 472.7410883 288.2782947 472.7410883 287.13851162 472.74096318 C275.0531734 472.74014931 262.9679595 472.7593165 250.88265727 472.78748767 C238.46692473 472.81620055 226.0512529 472.83002905 213.6354863 472.82830012 C206.66741723 472.82763597 199.69947875 472.83313973 192.73143959 472.85465622 C186.18392282 472.87474549 179.6366353 472.87421096 173.08908844 472.85962296 C170.68362971 472.8575255 168.27815398 472.86229109 165.87272453 472.87434387 C162.59465603 472.88970847 159.31755175 472.88054598 156.039505 472.86508179 C155.08289815 472.87536891 154.12629129 472.88565604 153.14069635 472.8962549 C148.94708799 472.8523919 146.53809347 472.6977687 142.83336163 470.5897007 C140.96313477 468.37060547 140.96313477 468.37060547 140.96313477 464.37060547 C134.36313477 464.37060547 127.76313477 464.37060547 120.96313477 464.37060547 C120.63313477 466.02060547 120.30313477 467.67060547 119.96313477 469.37060547 C117.62154543 471.9676936 116.19628997 472.34337995 112.70616055 472.7509222 C111.40412717 472.7533521 110.10209379 472.75578199 108.76060486 472.75828552 C107.67068634 472.76636383 107.67068634 472.76636383 106.55874926 472.77460533 C104.12297845 472.78891706 101.68774867 472.78177329 99.25195312 472.7746582 C97.50568199 472.78036041 95.75941459 472.78732409 94.01315308 472.79545593 C89.26688139 472.8134271 84.52079421 472.81221055 79.7744987 472.80651355 C75.80873741 472.80342487 71.84301173 472.80951116 67.8772555 472.81555229 C58.5143317 472.82961129 49.1514991 472.82802714 39.78857422 472.81665039 C30.14446833 472.80519052 20.50064121 472.8192058 10.85657209 472.84604686 C2.56847014 472.86824653 -5.7195446 472.87483097 -14.00767416 472.86897045 C-18.95385907 472.86560712 -23.89986566 472.86797339 -28.84602547 472.88522148 C-33.50415755 472.90075461 -38.16187962 472.89666476 -42.81999588 472.87791634 C-44.52307625 472.87424683 -46.22618739 472.87729078 -47.92923927 472.88780212 C-60.186798 472.95763571 -71.01262451 472.18558891 -80.31420898 463.30419922 C-85.91252652 457.02037341 -88.15454416 451.65970676 -88.17667294 443.27406311 C-88.18236418 442.0159935 -88.18805542 440.75792389 -88.19391912 439.46173096 C-88.19521173 438.06294768 -88.19639976 436.6641643 -88.19749451 435.26538086 C-88.20222586 433.78142666 -88.20737682 432.29747375 -88.21291214 430.81352234 C-88.22681885 426.72976189 -88.23440201 422.64601036 -88.24088514 418.56223226 C-88.24725675 415.06083124 -88.25732678 411.55944485 -88.2674458 408.05805296 C-88.30076881 396.52158773 -88.32229144 384.98511361 -88.34064564 373.44861603 C-88.34544115 370.44427974 -88.35042441 367.43994382 -88.35545087 364.43560791 C-88.38642335 345.77646595 -88.41310694 327.11732087 -88.42986965 308.4581604 C-88.43381911 304.13616938 -88.43782211 299.81417841 -88.44189453 295.4921875 C-88.44290289 294.4179853 -88.44391125 293.3437831 -88.44495017 292.23702931 C-88.46195234 274.84066382 -88.50305656 257.4444407 -88.55391752 240.0481447 C-88.60571421 222.18472452 -88.63481465 204.32137752 -88.64206654 186.45788288 C-88.64672626 176.4294305 -88.66145107 166.40121123 -88.70181084 156.37283325 C-88.73614664 147.83091031 -88.75003578 139.28926256 -88.7373867 130.74727458 C-88.73156808 126.39121374 -88.73536709 122.03573464 -88.76555634 117.67976189 C-88.79301021 113.68575772 -88.79235255 109.69274603 -88.77004588 105.69871891 C-88.76683542 104.25985795 -88.77361822 102.82092944 -88.79184311 101.38218033 C-88.90572067 91.80563556 -87.54453598 84.37157157 -82.03686523 76.37060547 C-76.22147711 70.53402668 -69.22352595 66.3400823 -60.82397461 66.0300293 C-59.34276988 66.03049536 -57.86150123 66.04690652 -56.38061523 66.07763672 C-55.19900818 66.08400398 -55.19900818 66.08400398 -53.99353027 66.09049988 C-51.50760933 66.1071293 -49.02253604 66.14474933 -46.53686523 66.18310547 C-44.83896038 66.19817275 -43.14104266 66.21185756 -41.44311523 66.22412109 C-37.30737804 66.25698081 -33.17226473 66.30865073 -29.03686523 66.37060547 C-29.04574768 65.74943848 -29.05463013 65.12827148 -29.06378174 64.48828125 C-29.15255867 57.99911743 -29.21272523 51.51012731 -29.2565918 45.02050781 C-29.27665588 42.60149117 -29.30391367 40.18252271 -29.33862305 37.76367188 C-29.38736864 34.27836179 -29.40988688 30.79369531 -29.42749023 27.30810547 C-29.44813538 26.23383301 -29.46878052 25.15956055 -29.49005127 24.05273438 C-29.49215286 16.95440673 -28.59610903 11.19949594 -23.62457275 5.85131836 C-16.50343328 -0.47845674 -9.00083003 -0.00194676 0 0 Z " fill="#EEEEEE" transform="translate(88.036865234375,19.62939453125)"/>
<path d="M0 0 C2.25866771 -0.00436177 4.51536056 -0.04068314 6.77368164 -0.07861328 C15.54341312 -0.14808708 21.90951124 0.27307288 28.98657227 6.01123047 C29.43258789 6.54232422 29.87860352 7.07341797 30.33813477 7.62060547 C31.03036133 8.40177734 31.03036133 8.40177734 31.73657227 9.19873047 C35.45456535 15.78218319 35.23548227 23.10082928 35.15844727 30.43310547 C35.15643311 31.34898438 35.15441895 32.26486328 35.15234375 33.20849609 C35.14196149 36.59591759 35.11403956 39.98326711 35.08813477 43.37060547 C35.04688477 50.96060547 35.00563477 58.55060547 34.96313477 66.37060547 C56.08313477 66.37060547 77.20313477 66.37060547 98.96313477 66.37060547 C98.84463184 50.23068232 98.84463184 50.23068232 98.69287109 34.09106445 C98.68410391 32.05794752 98.67646052 30.02482531 98.67016602 27.99169922 C98.64714417 26.4260321 98.64714417 26.4260321 98.62365723 24.82873535 C98.62103355 17.48857336 99.77562201 12.98841502 103.58813477 6.68310547 C110.66108241 -0.20371197 119.37063207 -0.29112234 128.76464844 -0.20581055 C130.89425002 -0.19193613 133.01944863 -0.22610745 135.14868164 -0.26416016 C143.25571236 -0.31096661 150.34371069 0.28410951 156.96313477 5.37060547 C160.98887217 10.29006456 163.09278954 14.89765949 163.07666016 21.30102539 C163.07653931 22.31579956 163.07641846 23.33057373 163.07629395 24.37609863 C163.07117798 25.44034058 163.06606201 26.50458252 163.06079102 27.60107422 C163.05978394 28.58096313 163.05877686 29.56085205 163.05773926 30.57043457 C163.05250479 34.23300343 163.03854354 37.89555562 163.02563477 41.55810547 C163.00500977 49.74623047 162.98438477 57.93435547 162.96313477 66.37060547 C184.08313477 66.37060547 205.20313477 66.37060547 226.96313477 66.37060547 C226.84476421 50.9789645 226.84476421 50.9789645 226.69287109 35.58764648 C226.68409981 33.64160661 226.6764574 31.69556119 226.67016602 29.74951172 C226.64714417 28.2639679 226.64714417 28.2639679 226.62365723 26.74841309 C226.62100611 19.63017713 227.25743321 12.76122311 231.83032227 7.03076172 C232.49290039 6.50353516 233.15547852 5.97630859 233.83813477 5.43310547 C234.49555664 4.88783203 235.15297852 4.34255859 235.83032227 3.78076172 C242.31996178 -0.51000727 249.0854453 0.0323518 256.57275391 0.05493164 C258.75873178 0.05808112 260.94334054 0.03464505 263.12915039 0.00927734 C278.74667171 -0.06442814 278.74667171 -0.06442814 284.98657227 5.01904297 C285.43258789 5.58880859 285.87860352 6.15857422 286.33813477 6.74560547 C287.03036133 7.59251953 287.03036133 7.59251953 287.73657227 8.45654297 C290.28384802 12.43159113 291.21350357 15.92129093 291.19018555 20.61987305 C291.19003448 21.64055374 291.18988342 22.66123444 291.18972778 23.71284485 C291.17940521 24.80260117 291.16908264 25.89235748 291.15844727 27.01513672 C291.15420242 28.70252205 291.15420242 28.70252205 291.14987183 30.42399597 C291.13869313 34.01047483 291.11359239 37.59670231 291.08813477 41.18310547 C291.078102 43.61734665 291.06897666 46.05159175 291.06079102 48.48583984 C291.03876133 54.44751389 291.00530651 60.40904172 290.96313477 66.37060547 C292.52040283 66.33918457 292.52040283 66.33918457 294.10913086 66.30712891 C298.00416981 66.23408589 301.89914974 66.18857513 305.79467773 66.15087891 C307.47251607 66.13090847 309.15028613 66.10372215 310.82788086 66.06884766 C322.01379878 65.84233115 330.58162804 66.19808184 340.21313477 72.49560547 C347.00033776 79.59131769 349.89158008 87.22325835 351.63500977 96.72998047 C352.00162615 98.56769875 352.36841309 100.40538495 352.73832321 102.24244308 C353.0148743 103.62001786 353.28903794 104.99807359 353.56108475 106.37654495 C355.38519458 115.6026515 357.40128634 124.78778267 359.39311409 133.97881889 C360.61982704 139.64490106 361.83855233 145.31270293 363.05859375 150.98022461 C363.57683502 153.38584647 364.09513629 155.79145541 364.61349487 158.197052 C364.87569195 159.4138628 365.13788902 160.6306736 365.40803146 161.88435745 C365.67371555 163.1173193 365.93939964 164.35028114 366.21313477 165.62060547 C366.61661573 167.49313051 366.61661573 167.49313051 367.02824783 169.40348434 C374.97461057 206.28073973 382.93866411 243.15412083 390.92856216 280.02197075 C392.5716692 287.60446042 394.21290058 295.18735289 395.85251999 302.77059746 C400.82872476 325.78389006 405.81866379 348.79334784 410.92788124 371.77752495 C412.22106282 377.60222866 413.50616181 383.42872203 414.79118252 389.2552309 C415.95720621 394.53653991 417.13767171 399.81432051 418.3304224 405.08965397 C419.047378 408.27634713 419.75044761 411.46598834 420.44979286 414.6565876 C420.76738674 416.091885 421.09064907 417.52594449 421.42061424 418.95844841 C423.9967458 430.15883672 427.08802144 444.75239277 421.28735352 455.41748047 C415.58895927 463.82219175 409.32029682 469.51238254 399.30608594 471.94305539 C395.05491889 472.7188235 390.81548504 472.65208272 386.5058136 472.63803101 C385.47753439 472.64256212 384.44925517 472.64709323 383.38981599 472.65176165 C379.95758505 472.66438297 376.52551324 472.66278676 373.09326172 472.66113281 C370.62731727 472.66711922 368.16137469 472.67392502 365.69543457 472.68148804 C359.70169721 472.69730616 353.70802201 472.70359555 347.71426956 472.70471279 C342.84321593 472.70566466 337.97217525 472.70978183 333.10112572 472.71611404 C319.28399302 472.73370998 305.46689133 472.74295475 291.64974735 472.7414531 C290.9058483 472.74137318 290.16194926 472.74129327 289.39550781 472.74121094 C288.2782947 472.7410883 288.2782947 472.7410883 287.13851162 472.74096318 C275.0531734 472.74014931 262.9679595 472.7593165 250.88265727 472.78748767 C238.46692473 472.81620055 226.0512529 472.83002905 213.6354863 472.82830012 C206.66741723 472.82763597 199.69947875 472.83313973 192.73143959 472.85465622 C186.18392282 472.87474549 179.6366353 472.87421096 173.08908844 472.85962296 C170.68362971 472.8575255 168.27815398 472.86229109 165.87272453 472.87434387 C162.59465603 472.88970847 159.31755175 472.88054598 156.039505 472.86508179 C155.08289815 472.87536891 154.12629129 472.88565604 153.14069635 472.8962549 C148.93665544 472.85228278 146.55826359 472.71910274 142.86851788 470.5584507 C140.96313477 468.37060547 140.96313477 468.37060547 140.40063477 464.87060547 C141.03794031 460.90514874 141.82550227 459.7699715 144.96313477 457.37060547 C147.93361021 455.88536774 150.60511616 456.24250297 153.9208374 456.23930359 C155.00735906 456.23613002 155.00735906 456.23613002 156.11583066 456.23289233 C158.55550691 456.22687631 160.99513166 456.22789363 163.43481445 456.22875977 C165.17904753 456.2257293 166.92327981 456.22220816 168.66751099 456.2182312 C172.43036742 456.21033264 176.19321432 456.20519367 179.95607758 456.20194054 C185.90598971 456.19603854 191.85584177 456.17950554 197.8057251 456.16059875 C199.84145733 456.15426106 201.8771896 456.14793544 203.91292191 456.14162159 C205.44237308 456.13687287 205.44237308 456.13687287 207.00272226 456.13202822 C220.85865635 456.08992853 234.71456287 456.05697748 248.57055664 456.04467773 C257.91113804 456.03630094 267.2515712 456.01382317 276.59207845 455.97532207 C281.53644905 455.95554615 286.48059799 455.94316187 291.42501068 455.94815636 C296.07738154 455.95279842 300.72933233 455.93902158 305.3816185 455.91114426 C307.08839667 455.90422467 308.7952182 455.90411418 310.50199509 455.91134453 C312.83432919 455.92022628 315.16527604 455.90455183 317.49749756 455.88285828 C318.80200237 455.88046992 320.10650719 455.87808157 321.45054245 455.87562084 C326.39332623 455.16498278 329.48055428 452.99114758 332.81507874 449.34632874 C334.65887844 444.56726086 334.36742324 439.8353248 334.33203125 434.7590332 C334.33579773 433.5845462 334.33956421 432.4100592 334.34344482 431.19998169 C334.35155504 427.98719535 334.34677047 424.77471465 334.33751941 421.56194186 C334.33200316 418.19652942 334.34649836 414.83121697 334.35987854 411.46583557 C334.39603296 401.45884917 334.40230075 391.45187002 334.39978027 381.44482422 C334.3980694 373.66198115 334.40517172 365.87937266 334.43975884 358.09659535 C334.45380311 354.74740437 334.45965482 351.39861004 334.4467144 348.04940605 C334.43497706 344.31692218 334.44727916 340.58522725 334.46484375 336.8527832 C334.45510025 335.74358017 334.44535675 334.63437714 334.43531799 333.49156189 C334.44968399 331.96698364 334.44968399 331.96698364 334.46434021 330.41160583 C334.46402628 329.08843432 334.46402628 329.08843432 334.46370602 327.73853207 C335.13187684 324.57055371 336.4658017 323.36633528 338.96313477 321.37060547 C341.90063477 320.80810547 341.90063477 320.80810547 344.96313477 321.37060547 C347.97387325 323.42969126 349.71235773 325.07434741 350.42094421 328.73700714 C350.60219826 331.80268476 350.61541956 334.83190899 350.57836914 337.90283203 C350.58391815 339.06928757 350.58946716 340.2357431 350.59518433 341.43754578 C350.60699996 345.29585787 350.58267777 349.15300034 350.55688477 353.01123047 C350.55517367 355.69539059 350.55513633 358.37950456 350.55700684 361.06365967 C350.55695329 366.69264903 350.53721672 372.32130253 350.50512695 377.95019531 C350.4683065 384.44006265 350.45944179 390.92948902 350.46642447 397.41944718 C350.47275282 403.67881819 350.46192766 409.93803934 350.44245911 416.19738007 C350.4343252 418.85269598 350.43230296 421.50780136 350.43315125 424.1631546 C350.43134634 427.88261123 350.40990124 431.60145126 350.38305664 435.32080078 C350.38598724 436.41202744 350.38891785 437.50325409 350.39193726 438.62754822 C350.32046006 445.07168999 349.43982798 450.40509482 346.96313477 456.37060547 C354.11687052 456.32702812 361.26982969 456.25657378 368.4230957 456.16308594 C370.85564151 456.13489096 373.28827869 456.11366915 375.72094727 456.09960938 C379.22142259 456.07816038 382.72080108 456.03149704 386.22094727 455.97998047 C387.3055423 455.97875183 388.39013733 455.97752319 389.50759888 455.97625732 C395.63552034 455.85786266 399.30439479 455.47255772 403.96313477 451.37060547 C407.74813444 447.18718477 408.59043115 443.91701956 408.34204102 438.46044922 C407.58572783 432.29298807 406.08907899 426.29098597 404.64770508 420.25537109 C403.31910141 414.65666179 402.04842091 409.04472157 400.77563477 403.43310547 C400.63046417 402.79458649 400.48529358 402.1560675 400.33572388 401.49819946 C397.53306011 389.15080366 394.91883218 376.76606754 392.33813477 364.37060547 C392.14363739 363.43648834 391.94914001 362.50237122 391.74874878 361.53994751 C390.98985939 357.89435523 390.23110572 354.24873473 389.47254944 350.60307312 C386.87805073 338.14485812 384.18520876 325.71076391 381.35375977 313.30419922 C380.76493081 310.72223296 380.17630755 308.14022115 379.58813477 305.55810547 C379.44036591 304.9099588 379.29259705 304.26181213 379.14035034 303.59402466 C376.58977232 292.38386064 374.24411258 281.13834912 371.95678711 269.87188721 C370.12504642 260.86136894 368.20413373 251.88198736 366.08813477 242.93310547 C362.23885806 226.64331662 358.9082043 210.23994464 355.52201843 193.84892273 C354.0383816 186.68176627 352.50218039 179.52604396 350.96313477 172.37060547 C350.95955224 173.31455563 350.95955224 173.31455563 350.95589733 174.27757549 C350.8967502 189.59289328 350.82120212 204.90802917 350.72741985 220.22317028 C350.68246246 227.6294786 350.64304772 235.03573884 350.61669922 242.44213867 C350.59371861 248.89788656 350.56032003 255.3534823 350.51443321 261.80910951 C350.49050162 265.22704817 350.47177251 268.64483615 350.46552086 272.06285667 C350.45592116 275.87945432 350.42790987 279.69550031 350.39550781 283.51196289 C350.3969429 284.64412735 350.39837799 285.77629181 350.39985657 286.94276428 C350.38731842 287.98457855 350.37478027 289.02639282 350.36186218 290.09977722 C350.35725322 291.00221255 350.35264425 291.90464788 350.34789562 292.83442974 C349.87801883 295.93165256 348.77831692 297.83847738 346.96313477 300.37060547 C345.06079102 301.21826172 345.06079102 301.21826172 343.02563477 301.43310547 C342.35661133 301.52720703 341.68758789 301.62130859 340.99829102 301.71826172 C338.96313477 301.37060547 338.96313477 301.37060547 334.96313477 297.37060547 C334.96313477 254.80060547 334.96313477 212.23060547 334.96313477 168.37060547 C200.32313477 168.37060547 65.68313477 168.37060547 -73.03686523 168.37060547 C-72.93374023 213.95185547 -72.83061523 259.53310547 -72.72436523 306.49560547 C-72.69947021 320.9023291 -72.6745752 335.30905273 -72.64892578 350.15234375 C-72.61237314 363.03612365 -72.61237314 363.03612365 -72.57185364 375.91989136 C-72.55387469 381.67047148 -72.54405599 387.42099523 -72.53974915 393.17160034 C-72.53475561 399.80169647 -72.51946324 406.43167287 -72.4913814 413.06171291 C-72.47733776 416.45421791 -72.46961869 419.84641307 -72.47182596 423.23896813 C-72.47347341 426.8705424 -72.45687063 430.50158555 -72.43559265 434.13308716 C-72.44286487 435.72310452 -72.44286487 435.72310452 -72.450284 437.34524345 C-72.38425332 444.16782856 -71.6745479 448.59838201 -66.80718994 453.71401024 C-63.2381274 455.8482337 -60.86110417 455.87265558 -56.71166992 455.87612915 C-55.620245 455.88526433 -55.620245 455.88526433 -54.50677109 455.89458406 C-52.07376711 455.91017415 -49.64174898 455.89740043 -47.20874023 455.88476562 C-45.46243674 455.89022678 -43.71613804 455.89746841 -41.96984863 455.90635681 C-38.21187188 455.92169376 -34.45416814 455.92449605 -30.69616699 455.91759109 C-24.75461138 455.90680969 -18.81334137 455.92418036 -12.87182617 455.94540405 C-3.47499664 455.97566755 5.92174837 455.98735918 15.31862259 455.99098051 C32.14851791 455.99762784 48.97835468 456.02661397 65.80817795 456.07607687 C71.71520584 456.09258287 77.62211082 456.09799 83.52915955 456.09448647 C87.20266187 456.09404961 90.87611774 456.10161138 94.54960632 456.11116219 C96.25359408 456.11384608 97.95759123 456.11309137 99.66157532 456.10865211 C101.98714888 456.10301223 104.31238562 456.10955614 106.63793945 456.11904907 C108.59023468 456.1195523 108.59023468 456.1195523 110.58197021 456.12006569 C113.87715834 456.36423473 116.06849832 456.80549418 118.96313477 458.37060547 C121.45150442 462.10315995 121.50540028 463.95501482 120.96313477 468.37060547 C118.22835226 471.2655907 116.54634983 472.28375107 112.58311272 472.87397003 C110.63144534 472.87623219 110.63144534 472.87623219 108.64035034 472.87854004 C107.54915018 472.88789998 107.54915018 472.88789998 106.43590558 472.89744902 C104.00308129 472.91337823 101.5712591 472.90077545 99.13842773 472.88818359 C97.39200761 472.89360505 95.64559207 472.90072785 93.89918518 472.90942383 C89.15704442 472.92766539 84.41525164 472.92058408 79.67310476 472.90790749 C74.70410829 472.89777452 69.73514145 472.90717489 64.7661438 472.91345215 C56.41508649 472.92073175 48.0641706 472.91113689 39.71313477 472.89208984 C30.07638186 472.87036325 20.43996804 472.87734052 10.80322349 472.89939547 C2.51933812 472.91759166 -5.76444557 472.92008592 -14.04834449 472.90964079 C-18.99114966 472.9034235 -23.93379594 472.90252059 -28.87659073 472.91578674 C-33.53065011 472.92740456 -38.18427631 472.91921189 -42.83828926 472.89620972 C-44.53975139 472.8909523 -46.24125042 472.89238511 -47.94269753 472.90126038 C-60.19236794 472.95922958 -71.01951638 472.17900838 -80.31420898 463.30419922 C-85.91252652 457.02037341 -88.15454416 451.65970676 -88.17667294 443.27406311 C-88.18236418 442.0159935 -88.18805542 440.75792389 -88.19391912 439.46173096 C-88.19521173 438.06294768 -88.19639976 436.6641643 -88.19749451 435.26538086 C-88.20222586 433.78142666 -88.20737682 432.29747375 -88.21291214 430.81352234 C-88.22681885 426.72976189 -88.23440201 422.64601036 -88.24088514 418.56223226 C-88.24725675 415.06083124 -88.25732678 411.55944485 -88.2674458 408.05805296 C-88.30076881 396.52158773 -88.32229144 384.98511361 -88.34064564 373.44861603 C-88.34544115 370.44427974 -88.35042441 367.43994382 -88.35545087 364.43560791 C-88.38642335 345.77646595 -88.41310694 327.11732087 -88.42986965 308.4581604 C-88.43381911 304.13616938 -88.43782211 299.81417841 -88.44189453 295.4921875 C-88.44290289 294.4179853 -88.44391125 293.3437831 -88.44495017 292.23702931 C-88.46195234 274.84066382 -88.50305656 257.4444407 -88.55391752 240.0481447 C-88.60571421 222.18472452 -88.63481465 204.32137752 -88.64206654 186.45788288 C-88.64672626 176.4294305 -88.66145107 166.40121123 -88.70181084 156.37283325 C-88.73614664 147.83091031 -88.75003578 139.28926256 -88.7373867 130.74727458 C-88.73156808 126.39121374 -88.73536709 122.03573464 -88.76555634 117.67976189 C-88.79301021 113.68575772 -88.79235255 109.69274603 -88.77004588 105.69871891 C-88.76683542 104.25985795 -88.77361822 102.82092944 -88.79184311 101.38218033 C-88.90572067 91.80563556 -87.54453598 84.37157157 -82.03686523 76.37060547 C-76.22147711 70.53402668 -69.22352595 66.3400823 -60.82397461 66.0300293 C-59.34276988 66.03049536 -57.86150123 66.04690652 -56.38061523 66.07763672 C-55.19900818 66.08400398 -55.19900818 66.08400398 -53.99353027 66.09049988 C-51.50760933 66.1071293 -49.02253604 66.14474933 -46.53686523 66.18310547 C-44.83896038 66.19817275 -43.14104266 66.21185756 -41.44311523 66.22412109 C-37.30737804 66.25698081 -33.17226473 66.30865073 -29.03686523 66.37060547 C-29.04574768 65.74943848 -29.05463013 65.12827148 -29.06378174 64.48828125 C-29.15255867 57.99911743 -29.21272523 51.51012731 -29.2565918 45.02050781 C-29.27665588 42.60149117 -29.30391367 40.18252271 -29.33862305 37.76367188 C-29.38736864 34.27836179 -29.40988688 30.79369531 -29.42749023 27.30810547 C-29.44813538 26.23383301 -29.46878052 25.15956055 -29.49005127 24.05273438 C-29.49215286 16.95440673 -28.59610903 11.19949594 -23.62457275 5.85131836 C-16.50343328 -0.47845674 -9.00083003 -0.00194676 0 0 Z " fill="#040303" transform="translate(88.036865234375,19.62939453125)"/>
<path d="M0 0 C2.69292186 1.27447193 4.17109965 0.79699482 6.97265625 -0.06640625 C7.96265625 -0.58203125 8.95265625 -1.09765625 9.97265625 -1.62890625 C16.86041369 -4.66011977 25.30747159 -3.98921342 32.28515625 -1.56640625 C37.58973109 0.88318603 41.3339822 4.41459534 44.97265625 8.93359375 C45.65714844 9.77470703 45.65714844 9.77470703 46.35546875 10.6328125 C50.55040903 17.15990489 50.07587046 26.47287395 48.97265625 33.93359375 C47.47085081 38.27851177 45.22846121 41.46176729 42.26953125 44.9296875 C40.57026932 47.07074432 40.57026932 47.07074432 41.53515625 50.68359375 C42.25752347 53.51854435 43.08766872 56.28080121 44.0078125 59.05859375 C49.51658594 77.38168248 49.36659089 98.86377848 42.97265625 116.93359375 C42.53192405 118.28495158 42.09184161 119.63652147 41.65234375 120.98828125 C32.96507123 146.6775275 13.97810894 167.19145165 -9.90234375 179.68359375 C-34.84623243 191.65554923 -63.77054612 194.27918007 -90.15332031 185.20214844 C-116.42734133 175.49138753 -136.99735603 156.30725884 -149.78515625 131.52734375 C-153.85360892 122.61354796 -156.11663152 113.49695344 -158.02734375 103.93359375 C-158.22070312 103.010625 -158.4140625 102.08765625 -158.61328125 101.13671875 C-162.18580347 73.50022613 -155.35096593 46.05015178 -138.33984375 23.87109375 C-104.97968972 -15.6548475 -44.81232004 -32.24811816 0 0 Z " fill="#040505" transform="translate(275.02734375,244.06640625)"/>
<path d="M0 0 C1.08384727 0.00848969 1.08384727 0.00848969 2.18959045 0.01715088 C4.47215211 0.03934243 6.75307823 0.08949951 9.03515625 0.140625 C10.59307611 0.16071256 12.15102085 0.17895936 13.70898438 0.1953125 C17.50582775 0.2391497 21.30146582 0.30805079 25.09765625 0.390625 C25.1116748 1.60008789 25.1116748 1.60008789 25.12597656 2.83398438 C25.17996665 6.52013085 25.26356073 10.20504741 25.34765625 13.890625 C25.36183594 15.1590625 25.37601563 16.4275 25.390625 17.734375 C25.59384114 25.53787476 25.93481914 31.93749141 31.50854492 37.89990234 C38.44846449 44.10842786 45.79007744 43.82360952 54.59741211 43.87109375 C56.76249564 43.8904227 58.92370408 43.95247308 61.08789062 44.015625 C68.58026013 44.13389206 74.57696572 43.54352823 81.09301758 39.46679688 C91.53548765 28.65169938 87.59279952 15.03147015 88.09765625 0.390625 C109.87765625 0.390625 131.65765625 0.390625 154.09765625 0.390625 C154.42765625 9.960625 154.75765625 19.530625 155.09765625 29.390625 C157.99360742 36.20937415 157.99360742 36.20937415 162.66015625 40.328125 C163.52833984 40.89853516 163.52833984 40.89853516 164.4140625 41.48046875 C169.93511111 44.46516556 176.39533819 43.69068352 182.50146484 43.74072266 C183.97167881 43.7572056 185.44181521 43.78439404 186.91162109 43.82275391 C195.47316049 44.04465542 203.18971701 44.23754762 210.09765625 38.390625 C219.41307628 27.95393486 215.62583985 14.07330072 216.09765625 0.390625 C237.87765625 0.390625 259.65765625 0.390625 282.09765625 0.390625 C282.42765625 9.630625 282.75765625 18.870625 283.09765625 28.390625 C286.50500218 36.34109883 289.19789055 40.06005563 297.09765625 43.390625 C301.65236979 43.91768771 306.20223908 43.86394078 310.78271484 43.83666992 C312.96027645 43.8281733 315.13519777 43.85693493 317.3125 43.88867188 C325.38728131 43.9299637 332.35615236 43.84560526 338.60058594 37.97851562 C343.11458629 32.96010385 344.33052117 28.39105525 344.51171875 21.77734375 C344.55039062 20.53017578 344.5890625 19.28300781 344.62890625 17.99804688 C344.65984375 16.70447266 344.69078125 15.41089844 344.72265625 14.078125 C344.76132812 12.76521484 344.8 11.45230469 344.83984375 10.09960938 C344.93398742 6.86342063 345.01961977 3.62723565 345.09765625 0.390625 C349.65077967 0.26614947 354.20289279 0.17588091 358.75732422 0.1159668 C360.30339837 0.09096768 361.84935607 0.05695598 363.39501953 0.01342773 C378.80511681 -0.40937997 378.80511681 -0.40937997 384.65234375 3.72192383 C399.66948668 21.06012855 389.09765625 49.45314639 389.09765625 72.390625 C254.45765625 72.390625 119.81765625 72.390625 -18.90234375 72.390625 C-18.90234375 11.390625 -18.90234375 11.390625 -14.90234375 4.390625 C-10.64347581 0.38872398 -5.674567 -0.17084915 0 0 Z " fill="#FD4A4A" transform="translate(33.90234375,100.609375)"/>
<path d="M0 0 C-1.50006391 3.44779086 -3.50409262 5.82360533 -6.0625 8.5625 C-9.33018473 12.12296928 -12.46479193 15.7393292 -15.5 19.5 C-18.4081338 23.0947765 -21.38541332 26.58260628 -24.5 30 C-28.42665409 34.30907606 -32.11498222 38.77349034 -35.78125 43.3046875 C-39.0742501 47.30498692 -42.52128406 51.16109003 -46 55 C-48.30894489 52.76102314 -50.53637416 50.5836508 -52.5390625 48.0625 C-57.66337924 41.65103261 -64.73581915 36.7011285 -73.12890625 35.76171875 C-81.33738871 35.5113798 -87.48842354 37.68103441 -94.3125 42.1875 C-101.52273681 49.73309667 -103.46450245 57.42723317 -103.328125 67.6328125 C-102.37182914 77.44622952 -95.27230331 84.89679314 -89.33056641 92.32666016 C-87.60791706 94.49308926 -85.92144526 96.68594404 -84.23852539 98.88330078 C-83.41337445 99.96040497 -82.58573651 101.03560848 -81.75561523 102.10888672 C-79.61245704 104.88060961 -77.50026798 107.66964935 -75.4296875 110.49609375 C-69.41380993 118.65059345 -63.89337358 126.04640664 -53.33984375 127.7421875 C-52.18162109 127.86980469 -52.18162109 127.86980469 -51 128 C-50.21753906 128.10570312 -49.43507813 128.21140625 -48.62890625 128.3203125 C-41.06064181 128.87733676 -35.15813511 126.26761954 -29 122 C-24.98178417 118.2695753 -21.46492089 114.24110569 -18 110 C-17.21753906 109.05253906 -16.43507813 108.10507812 -15.62890625 107.12890625 C-14.13859246 105.30798559 -12.65537528 103.48123122 -11.1796875 101.6484375 C-9.02242601 99.02724881 -6.78689 96.50845719 -4.5 94 C-1.47717579 90.68010514 1.42512161 87.30235888 4.25 83.8125 C8.38277331 78.70942339 12.6494522 73.73839319 16.96704102 68.79199219 C19.81572232 65.52705187 22.6433624 62.2481067 25.4296875 58.9296875 C26.2508606 57.9557605 26.2508606 57.9557605 27.08862305 56.9621582 C28.13643975 55.71722588 29.17975143 54.46848468 30.21801758 53.21557617 C31.43583662 51.77309665 32.71274623 50.38087223 34 49 C34.66 49 35.32 49 36 49 C42.29721209 73.7390475 39.37281913 98.04915344 26.65234375 120.3828125 C13.26277134 141.59088227 -6.89975559 154.88501261 -31 161 C-54.66781806 165.39256208 -77.67695907 160.66074568 -98 148 C-118.21400325 133.71132289 -132.04357674 113.31783323 -136.59375 88.80078125 C-139.26350027 63.82321382 -134.92868706 40.15890525 -119.25 19.9375 C-89.21489707 -15.87794349 -40.16579478 -25.30128805 0 0 Z " fill="#84C0ED" transform="translate(268,257)"/>
<path d="M0 0 C1.84890112 2.77335168 2.38704075 4.05703791 3.01806641 7.19140625 C3.19259842 8.04050064 3.36713043 8.88959503 3.54695129 9.76441956 C3.72997299 10.6877861 3.91299469 11.61115265 4.1015625 12.5625 C4.29904587 13.52900986 4.49652924 14.49551971 4.69999695 15.49131775 C5.12524361 17.57397749 5.54770329 19.65720782 5.96768188 21.74093628 C7.07425921 27.22748219 8.20231032 32.7095857 9.33203125 38.19140625 C9.55789413 39.28852432 9.78375702 40.3856424 10.01646423 41.51600647 C11.98338265 51.02139794 14.10857933 60.48465088 16.3125 69.9375 C18.76510432 80.48033886 21.06929937 91.03413948 23.14233398 101.65942383 C24.77809801 110.00528338 26.55245611 118.31827449 28.375 126.625 C28.52301056 127.29995514 28.67102112 127.97491028 28.82351685 128.6703186 C30.72054169 137.30769098 32.66299425 145.93404166 34.62939453 154.5559082 C37.38835949 166.65868127 40.02209822 178.77438696 42.5 190.9375 C44.78277397 202.14117525 47.11868914 213.33025034 49.5625 224.5 C49.70615997 225.15872101 49.84981995 225.81744202 49.99783325 226.49612427 C51.52504142 233.4897432 53.09866884 240.46968206 54.7734375 247.4296875 C55.05372803 248.60337891 55.33401855 249.77707031 55.62280273 250.98632812 C56.14587454 253.16200588 56.67843309 255.33543703 57.22290039 257.50585938 C58.98127364 264.8172128 60.79582039 272.40835922 57.3125 279.375 C54.53604336 282.52665348 51.77376371 285.11311814 48 287 C46.36582405 287.0902835 44.72797163 287.11755658 43.09130859 287.11352539 C42.07040131 287.11344986 41.04949402 287.11337433 39.99765015 287.11329651 C38.33978989 287.10555458 38.33978989 287.10555458 36.6484375 287.09765625 C34.95468491 287.09553383 34.95468491 287.09553383 33.22671509 287.09336853 C29.60945012 287.08775744 25.99224636 287.07520303 22.375 287.0625 C19.92708423 287.05748643 17.47916748 287.05292328 15.03125 287.04882812 C9.02081234 287.0377844 3.01041054 287.02103544 -3 287 C-2.67599213 285.76385452 -2.35198425 284.52770905 -2.01815796 283.25410461 C-0.74123777 277.47032219 -0.70457691 271.83704574 -0.70947266 265.93432617 C-0.70275543 264.75925507 -0.69603821 263.58418396 -0.68911743 262.37350464 C-0.67021292 258.51328235 -0.66621811 254.65323436 -0.6640625 250.79296875 C-0.66121287 249.45792375 -0.65802045 248.12287945 -0.65449142 246.78783607 C-0.63604729 239.80653796 -0.62781515 232.82531582 -0.62939453 225.84399414 C-0.63059964 219.34369802 -0.6094111 212.8437319 -0.5779072 206.34351939 C-0.55176685 200.75009993 -0.54102604 195.15678862 -0.54230535 189.56330854 C-0.54281496 186.2275359 -0.53528989 182.89229318 -0.51594925 179.55653954 C-0.49642341 175.84364382 -0.50207351 172.13160982 -0.51416016 168.41870117 C-0.50292114 167.31578232 -0.49168213 166.21286346 -0.48010254 165.07652283 C-0.48849152 164.06591797 -0.49688049 163.05531311 -0.50552368 162.01408386 C-0.50443415 161.13716479 -0.50334461 160.26024572 -0.50222206 159.35675335 C-1.16966164 156.1967289 -2.5236997 155.00841851 -5 153 C-5.99 152.67 -6.98 152.34 -8 152 C-8 145.4 -8 138.8 -8 132 C-6.02 131.01 -4.04 130.02 -2 129 C-1.00081525 126.00244574 -0.86360212 123.98858998 -0.84178162 120.85578918 C-0.8319928 119.79148178 -0.82220398 118.72717438 -0.81211853 117.63061523 C-0.80636307 116.46320801 -0.8006076 115.29580078 -0.79467773 114.09301758 C-0.77982834 112.24893562 -0.77982834 112.24893562 -0.76467896 110.36759949 C-0.73848412 106.99598901 -0.71662499 103.6244023 -0.69667697 100.25275254 C-0.67481124 96.72932273 -0.64742542 93.20593597 -0.62062073 89.68254089 C-0.57070179 83.01029612 -0.52576 76.33802744 -0.48259836 69.6657359 C-0.43321916 62.06965189 -0.37830357 54.47361107 -0.32291877 46.87756884 C-0.20911099 31.25175248 -0.10226932 15.62589639 0 0 Z " fill="#E0E0E0" transform="translate(438,189)"/>
<path d="M0 0 C3.43403788 2.00011167 6.21175747 4.42351494 8 8 C8.79881121 12.74345627 9.03167062 17.11871828 6.671875 21.421875 C4.55908014 24.06730722 2.31114937 26.52550623 0 29 C-1.54565202 30.76823004 -3.07407886 32.55056805 -4.60302734 34.33325195 C-6.27203342 36.27564252 -7.9527052 38.20733142 -9.63671875 40.13671875 C-12.7977507 43.76242149 -15.93497211 47.40788381 -19.0625 51.0625 C-19.55331055 51.63581055 -20.04412109 52.20912109 -20.54980469 52.79980469 C-21.53869602 53.95513664 -22.5274659 55.11057257 -23.51611328 56.26611328 C-26.00895524 59.17894046 -28.50462766 62.08934061 -31 65 C-32.0000134 66.16665518 -33.00001341 67.33332184 -34 68.5 C-40 75.5 -40 75.5 -41.50073242 77.25073242 C-42.49845195 78.41481977 -43.49601114 79.57904456 -44.4934082 80.7434082 C-47.02698743 83.70069887 -49.56350137 86.65538369 -52.10546875 89.60546875 C-53.13298797 90.79932817 -54.16033347 91.99333713 -55.1875 93.1875 C-55.68443359 93.7647583 -56.18136719 94.3420166 -56.69335938 94.93676758 C-60.58601973 99.47584156 -64.35084921 104.10419778 -68.0625 108.79296875 C-71.8676481 113.12746205 -74.9588582 114.79588582 -80.75 115.375 C-85.58556364 115.25168872 -88.65257282 113.39016029 -92 110 C-94.74512125 106.64827892 -97.28403296 103.16979689 -99.80419922 99.64697266 C-101.3706459 97.48951057 -103.00009502 95.3821312 -104.63793945 93.27856445 C-105.88868255 91.66990198 -107.12468071 90.0506898 -108.359375 88.4296875 C-110.22625066 85.98456344 -112.14139688 83.58539458 -114.078125 81.1953125 C-122.69763952 70.34318005 -122.69763952 70.34318005 -122.875 64.375 C-122.36616412 60.62698939 -121.64021787 57.80523149 -119 55 C-114.59034786 52.05049757 -110.37983853 50.06437591 -105 51 C-100.39521508 53.6788054 -97.31797925 56.67034321 -94 60.8125 C-93.56776123 61.34004883 -93.13552246 61.86759766 -92.69018555 62.41113281 C-90.83029128 64.68383373 -89.01581382 66.97861742 -87.26953125 69.33984375 C-84.88043433 72.4719306 -83.65775467 73.89360993 -79.69140625 74.53515625 C-74.94167362 73.84657067 -73.05164662 71.71711169 -70.125 68.1875 C-69.6096167 67.59799561 -69.0942334 67.00849121 -68.56323242 66.40112305 C-67.017716 64.61986206 -65.50412362 62.81628113 -64 61 C-63.18917969 60.02289063 -62.37835938 59.04578125 -61.54296875 58.0390625 C-60.06879428 56.23700684 -58.60247815 54.42849082 -57.14453125 52.61328125 C-55.00125044 50.00152377 -52.7761967 47.49634698 -50.5 45 C-47.38541332 41.58260628 -44.4081338 38.0947765 -41.5 34.5 C-37.89255892 30.040802 -34.12318381 25.77871536 -30.2578125 21.54296875 C-27.87767687 18.86222776 -25.62268159 16.10495866 -23.375 13.3125 C-11.12671253 -1.81016667 -11.12671253 -1.81016667 0 0 Z " fill="#EF941C" transform="translate(301,256)"/>
<path d="M0 0 C1.9164762 2.87471429 2.45356306 4.3649816 3.12915039 7.65161133 C3.32597916 8.59301468 3.52280792 9.53441803 3.7256012 10.50434875 C4.03351845 12.02780159 4.03351845 12.02780159 4.34765625 13.58203125 C4.56441513 14.62896652 4.78117401 15.67590179 5.00450134 16.75456238 C5.69666956 20.10597171 6.37954114 23.45920321 7.0625 26.8125 C7.52611449 29.06066619 7.99030047 31.30871461 8.45507812 33.55664062 C9.30678865 37.69048613 10.15784977 41.82445016 11.00024414 45.96020508 C11.16964005 46.79054764 11.33903595 47.6208902 11.51356506 48.47639465 C11.67408859 49.30918442 11.83461212 50.14197418 12 51 C12.17291911 51.85509533 12.34583822 52.71019066 12.52399731 53.59119797 C13.10880056 57.77915437 13.12645896 61.84207983 13.10247803 66.06443787 C13.1013656 66.96709053 13.10025317 67.86974319 13.09910703 68.79974896 C13.09407538 71.81892441 13.08172459 74.83802416 13.06933594 77.85717773 C13.06410173 80.02401641 13.05927486 82.1908561 13.05482483 84.35769653 C13.04118641 90.23987872 13.02073993 96.12201769 12.99825954 102.00417209 C12.98439202 105.67908451 12.97175714 109.35399916 12.9595108 113.02891731 C12.92091349 124.52724359 12.87830215 136.02554415 12.82973552 147.52383274 C12.77368137 160.79719934 12.73067096 174.07052289 12.69905448 187.34396976 C12.67384738 197.60573609 12.63725159 207.86742222 12.59196877 218.12911946 C12.56516698 224.2577472 12.54316915 230.38630247 12.53295135 236.51498222 C12.52301512 242.2778605 12.49894694 248.04050819 12.46401787 253.80328751 C12.45362734 255.91762089 12.44830978 258.03198623 12.44845009 260.14634514 C12.44785823 263.03401714 12.42893609 265.92101486 12.40545654 268.80857849 C12.41170473 270.06170394 12.41170473 270.06170394 12.41807914 271.34014505 C12.34973119 276.632982 11.38607691 280.26476178 9 285 C8.67 285.66 8.34 286.32 8 287 C4.37 287 0.74 287 -3 287 C-2.67599213 285.76385452 -2.35198425 284.52770905 -2.01815796 283.25410461 C-0.74123777 277.47032219 -0.70457691 271.83704574 -0.70947266 265.93432617 C-0.70275543 264.75925507 -0.69603821 263.58418396 -0.68911743 262.37350464 C-0.67021292 258.51328235 -0.66621811 254.65323436 -0.6640625 250.79296875 C-0.66121287 249.45792375 -0.65802045 248.12287945 -0.65449142 246.78783607 C-0.63604729 239.80653796 -0.62781515 232.82531582 -0.62939453 225.84399414 C-0.63059964 219.34369802 -0.6094111 212.8437319 -0.5779072 206.34351939 C-0.55176685 200.75009993 -0.54102604 195.15678862 -0.54230535 189.56330854 C-0.54281496 186.2275359 -0.53528989 182.89229318 -0.51594925 179.55653954 C-0.49642341 175.84364382 -0.50207351 172.13160982 -0.51416016 168.41870117 C-0.50292114 167.31578232 -0.49168213 166.21286346 -0.48010254 165.07652283 C-0.48849152 164.06591797 -0.49688049 163.05531311 -0.50552368 162.01408386 C-0.50443415 161.13716479 -0.50334461 160.26024572 -0.50222206 159.35675335 C-1.16966164 156.1967289 -2.5236997 155.00841851 -5 153 C-5.99 152.67 -6.98 152.34 -8 152 C-8 145.4 -8 138.8 -8 132 C-6.02 131.01 -4.04 130.02 -2 129 C-1.00081525 126.00244574 -0.86360212 123.98858998 -0.84178162 120.85578918 C-0.8319928 119.79148178 -0.82220398 118.72717438 -0.81211853 117.63061523 C-0.80636307 116.46320801 -0.8006076 115.29580078 -0.79467773 114.09301758 C-0.77982834 112.24893562 -0.77982834 112.24893562 -0.76467896 110.36759949 C-0.73848412 106.99598901 -0.71662499 103.6244023 -0.69667697 100.25275254 C-0.67481124 96.72932273 -0.64742542 93.20593597 -0.62062073 89.68254089 C-0.57070179 83.01029612 -0.52576 76.33802744 -0.48259836 69.6657359 C-0.43321916 62.06965189 -0.37830357 54.47361107 -0.32291877 46.87756884 C-0.20911099 31.25175248 -0.10226932 15.62589639 0 0 Z " fill="#B9B9B9" transform="translate(438,189)"/>
<path d="M0 0 C1.29292969 -0.00257812 2.58585937 -0.00515625 3.91796875 -0.0078125 C4.59263184 -0.00362305 5.26729492 0.00056641 5.96240234 0.00488281 C8.02341157 0.0155843 10.08354919 0.00498557 12.14453125 -0.0078125 C13.43746094 -0.00523438 14.73039062 -0.00265625 16.0625 0 C17.25423828 0.00225586 18.44597656 0.00451172 19.67382812 0.00683594 C22.53125 0.265625 22.53125 0.265625 24.53125 2.265625 C24.73516973 5.08088693 24.81441522 7.79818265 24.8059082 10.61499023 C24.81101913 11.47853119 24.81613007 12.34207214 24.82139587 13.23178101 C24.83533459 16.09599676 24.83433188 18.95997304 24.83203125 21.82421875 C24.83591588 23.80957632 24.84025006 25.79493305 24.84501648 27.7802887 C24.85248794 31.94575695 24.85218076 36.11114047 24.84692383 40.27661133 C24.84112849 45.62133483 24.85805732 50.96571188 24.8812685 56.31037807 C24.89598244 60.41183001 24.89688073 64.51319806 24.89375877 68.61467171 C24.89427318 70.58549753 24.89953322 72.5563279 24.90957069 74.52712822 C24.9218723 77.28060451 24.9151813 80.03340028 24.90356445 82.78686523 C24.91503006 84.01429695 24.91503006 84.01429695 24.92672729 85.26652527 C24.87469245 90.83100428 24.87469245 90.83100428 23.18107891 92.97424412 C20.67967771 94.93218149 18.57278213 94.6543857 15.4375 94.6640625 C14.24253906 94.66792969 13.04757812 94.67179687 11.81640625 94.67578125 C9.94275391 94.65837891 9.94275391 94.65837891 8.03125 94.640625 C6.78214844 94.65222656 5.53304688 94.66382813 4.24609375 94.67578125 C2.45365234 94.66998047 2.45365234 94.66998047 0.625 94.6640625 C-0.47134766 94.66067871 -1.56769531 94.65729492 -2.69726562 94.65380859 C-5.87081835 94.20930993 -6.52910539 93.72021308 -8.46875 91.265625 C-8.75980939 88.36757548 -8.86813885 85.68527065 -8.84106445 82.78686523 C-8.84471512 81.92157196 -8.84836578 81.05627869 -8.85212708 80.1647644 C-8.86024142 77.30105033 -8.84661625 74.43790046 -8.83203125 71.57421875 C-8.8315128 69.58789572 -8.83202992 67.60157216 -8.83354187 65.61524963 C-8.83345211 61.45151108 -8.82301404 57.287966 -8.80493164 53.12426758 C-8.78222964 47.77840534 -8.78170263 42.43282556 -8.78844929 37.08692837 C-8.79178515 32.98551407 -8.78516665 28.88416456 -8.77532005 24.78276253 C-8.77146226 22.81112062 -8.77032222 20.83947151 -8.7719059 18.86782646 C-8.77227536 16.11674042 -8.75969039 13.36602133 -8.7434082 10.61499023 C-8.74588562 9.79467819 -8.74836304 8.97436615 -8.75091553 8.12919617 C-8.68121909 0.77793146 -7.09730423 0.01343459 0 0 Z " fill="#FACB63" transform="translate(339.46875,35.734375)"/>
<path d="M0 0 C1.29292969 -0.00257812 2.58585937 -0.00515625 3.91796875 -0.0078125 C4.59263184 -0.00362305 5.26729492 0.00056641 5.96240234 0.00488281 C8.02341157 0.0155843 10.08354919 0.00498557 12.14453125 -0.0078125 C13.43746094 -0.00523438 14.73039062 -0.00265625 16.0625 0 C17.25423828 0.00225586 18.44597656 0.00451172 19.67382812 0.00683594 C22.53125 0.265625 22.53125 0.265625 24.53125 2.265625 C24.73516973 5.08088693 24.81441522 7.79818265 24.8059082 10.61499023 C24.81101913 11.47853119 24.81613007 12.34207214 24.82139587 13.23178101 C24.83533459 16.09599676 24.83433188 18.95997304 24.83203125 21.82421875 C24.83591588 23.80957632 24.84025006 25.79493305 24.84501648 27.7802887 C24.85248794 31.94575695 24.85218076 36.11114047 24.84692383 40.27661133 C24.84112849 45.62133483 24.85805732 50.96571188 24.8812685 56.31037807 C24.89598244 60.41183001 24.89688073 64.51319806 24.89375877 68.61467171 C24.89427318 70.58549753 24.89953322 72.5563279 24.90957069 74.52712822 C24.9218723 77.28060451 24.9151813 80.03340028 24.90356445 82.78686523 C24.91503006 84.01429695 24.91503006 84.01429695 24.92672729 85.26652527 C24.87469245 90.83100428 24.87469245 90.83100428 23.18107891 92.97424412 C20.67967771 94.93218149 18.57278213 94.6543857 15.4375 94.6640625 C14.24253906 94.66792969 13.04757813 94.67179687 11.81640625 94.67578125 C9.94275391 94.65837891 9.94275391 94.65837891 8.03125 94.640625 C6.78214844 94.65222656 5.53304687 94.66382813 4.24609375 94.67578125 C2.45365234 94.66998047 2.45365234 94.66998047 0.625 94.6640625 C-0.47134766 94.66067871 -1.56769531 94.65729492 -2.69726562 94.65380859 C-5.87081835 94.20930993 -6.52910539 93.72021308 -8.46875 91.265625 C-8.75980939 88.36757548 -8.86813885 85.68527065 -8.84106445 82.78686523 C-8.84471512 81.92157196 -8.84836578 81.05627869 -8.85212708 80.1647644 C-8.86024142 77.30105033 -8.84661625 74.43790046 -8.83203125 71.57421875 C-8.8315128 69.58789572 -8.83202992 67.60157216 -8.83354187 65.61524963 C-8.83345211 61.45151108 -8.82301404 57.287966 -8.80493164 53.12426758 C-8.78222964 47.77840534 -8.78170263 42.43282556 -8.78844929 37.08692837 C-8.79178515 32.98551407 -8.78516665 28.88416456 -8.77532005 24.78276253 C-8.77146226 22.81112062 -8.77032222 20.83947151 -8.7719059 18.86782646 C-8.77227536 16.11674042 -8.75969039 13.36602133 -8.7434082 10.61499023 C-8.74588562 9.79467819 -8.74836304 8.97436615 -8.75091553 8.12919617 C-8.68121909 0.77793146 -7.09730423 0.01343459 0 0 Z " fill="#FECE64" transform="translate(82.46875,35.734375)"/>
<path d="M0 0 C0.67877197 0.00008057 1.35754395 0.00016113 2.05688477 0.00024414 C4.12667451 -0.00194046 6.1959298 -0.02008804 8.265625 -0.0390625 C10.21178711 -0.04196289 10.21178711 -0.04196289 12.19726562 -0.04492188 C13.39536865 -0.04903076 14.59347168 -0.05313965 15.82788086 -0.05737305 C18.70117188 0.18554688 18.70117188 0.18554688 20.70117188 2.18554688 C20.90512906 5.03629167 20.98433107 7.79028965 20.97583008 10.64257812 C20.98094101 11.51747894 20.98605194 12.39237976 20.99131775 13.29379272 C21.00525545 16.19527972 21.00425401 19.09653032 21.00195312 21.99804688 C21.00583745 24.00822031 21.01017157 26.01839292 21.01493835 28.02856445 C21.02240934 32.245307 21.02210271 36.46196582 21.0168457 40.67871094 C21.01104661 46.09303329 21.02798851 51.50701407 21.05119038 56.92127991 C21.06589247 61.07330339 21.0668043 65.22524392 21.06368065 69.37728882 C21.06419553 71.37406084 21.06946432 73.37083732 21.07949257 75.36758423 C21.09177307 78.15479002 21.08511635 80.94132135 21.07348633 83.72851562 C21.08495193 84.97536636 21.08495193 84.97536636 21.09664917 86.24740601 C21.07539368 88.54174805 21.07539368 88.54174805 20.70117188 92.18554688 C17.1925516 94.52462706 15.7218622 94.44268289 11.57226562 94.45117188 C9.77305664 94.45503906 9.77305664 94.45503906 7.9375 94.45898438 C6.68388672 94.45125 5.43027344 94.44351563 4.13867188 94.43554688 C2.88119141 94.44328125 1.62371094 94.45101562 0.328125 94.45898438 C-0.87005859 94.45640625 -2.06824219 94.45382813 -3.30273438 94.45117188 C-4.40431885 94.44891602 -5.50590332 94.44666016 -6.64086914 94.44433594 C-9.29882812 94.18554688 -9.29882812 94.18554688 -11.29882812 92.18554688 C-11.49232534 89.29880444 -11.56101563 86.50834583 -11.54174805 83.62084961 C-11.54364639 82.73458893 -11.54554474 81.84832825 -11.54750061 80.93521118 C-11.55121498 77.99643192 -11.54049558 75.05789804 -11.52929688 72.11914062 C-11.52810543 70.08415252 -11.52765184 68.04916385 -11.52790833 66.01417542 C-11.52634236 61.74615036 -11.51804351 57.47820906 -11.50463867 53.21020508 C-11.48763791 47.72639175 -11.48382457 42.24267047 -11.48458385 36.75883389 C-11.48431257 32.55625014 -11.47883816 28.35368671 -11.47158241 24.1511097 C-11.46838985 22.12839982 -11.46642697 20.10568764 -11.46568871 18.08297539 C-11.46353195 15.26222649 -11.45480253 12.44157726 -11.4440918 9.62084961 C-11.44454498 8.77666977 -11.44499817 7.93248993 -11.44546509 7.06272888 C-11.39575616 -1.84379708 -8.07249623 0.03612753 0 0 Z " fill="#FECE64" transform="translate(214.298828125,35.814453125)"/>
<path d="M0 0 C1.29550781 -0.03867188 1.29550781 -0.03867188 2.6171875 -0.078125 C5.57524649 0.30891076 6.91701784 1.29875995 9.125 3.25 C5.31609313 11.82502594 -2.37303752 18.85895783 -8.625 25.71875 C-10.95362053 28.3384481 -13.17062947 31.0251531 -15.375 33.75 C-18.98532442 38.21276213 -22.75927929 42.47719533 -26.625 46.71875 C-28.95362053 49.3384481 -31.17062947 52.0251531 -33.375 54.75 C-36.9836081 59.21064056 -40.75414651 63.47410835 -44.62109375 67.7109375 C-46.98059513 70.36895465 -49.21224115 73.10392294 -51.4375 75.875 C-64.13232955 91.43498206 -64.13232955 91.43498206 -75.4375 92.625 C-84.66569306 91.61828803 -90.55445273 86.27441732 -96.2890625 79.32421875 C-98.43880024 76.57819118 -100.52615284 73.78787072 -102.59619141 70.98144531 C-103.89161212 69.22750799 -105.19955102 67.48362362 -106.51171875 65.7421875 C-108.64018603 62.91693717 -110.7599869 60.08534365 -112.875 57.25 C-111.15625 53.40625 -111.15625 53.40625 -108.625 52 C-105.43606898 51.13029154 -103.168483 50.84671637 -99.875 51.25 C-95.26074157 53.91086816 -92.1910016 56.92281211 -88.875 61.0625 C-88.44276123 61.59004883 -88.01052246 62.11759766 -87.56518555 62.66113281 C-85.70529128 64.93383373 -83.89081382 67.22861742 -82.14453125 69.58984375 C-79.75543433 72.7219306 -78.53275467 74.14360993 -74.56640625 74.78515625 C-69.81667362 74.09657067 -67.92664662 71.96711169 -65 68.4375 C-64.4846167 67.84799561 -63.9692334 67.25849121 -63.43823242 66.65112305 C-61.892716 64.86986206 -60.37912362 63.06628113 -58.875 61.25 C-58.06417969 60.27289063 -57.25335938 59.29578125 -56.41796875 58.2890625 C-54.94379428 56.48700684 -53.47747815 54.67849082 -52.01953125 52.86328125 C-49.87625044 50.25152377 -47.6511967 47.74634698 -45.375 45.25 C-42.26041332 41.83260628 -39.2831338 38.3447765 -36.375 34.75 C-32.76755892 30.290802 -28.99818381 26.02871536 -25.1328125 21.79296875 C-22.75267687 19.11222776 -20.49768159 16.35495866 -18.25 13.5625 C-7.37163663 0.13124576 -7.37163663 0.13124576 0 0 Z " fill="#FCA72B" transform="translate(295.875,255.75)"/>
<path d="M0 0 C-0.67804688 0.47308594 -1.35609375 0.94617188 -2.0546875 1.43359375 C-24.29786503 17.23795673 -39.57329917 37.90316273 -45 65 C-49.23551482 90.11689909 -43.60339159 116.08350325 -29 137 C-21.00669686 147.85141939 -10.5994471 159.45624328 2 165 C1.34 165.33 0.68 165.66 0 166 C-23.26218033 157.10104511 -41.04908726 140.91307614 -51.8125 118.4375 C-61.05819704 96.77889482 -62.40685586 71.86403223 -53.6875 49.8125 C-43.31690384 26.57125325 -27.22262988 10.14219637 -4.109375 -0.3203125 C-2 -1 -2 -1 0 0 Z " fill="#67ACE7" transform="translate(190,249)"/>
<path d="M0 0 C3.63 0 7.26 0 11 0 C11 30.69 11 61.38 11 93 C16.61 93 22.22 93 28 93 C28 93.33 28 93.66 28 94 C23.56262288 94.08690253 19.12546366 94.14035926 14.6875 94.1875 C12.79354492 94.22520508 12.79354492 94.22520508 10.86132812 94.26367188 C9.65283203 94.27333984 8.44433594 94.28300781 7.19921875 94.29296875 C6.08377686 94.3086792 4.96833496 94.32438965 3.8190918 94.34057617 C0.58807045 93.95023454 -0.03859168 93.49194385 -2 91 C-2.29105939 88.10195048 -2.39938885 85.41964565 -2.37231445 82.52124023 C-2.37596512 81.65594696 -2.37961578 80.79065369 -2.38337708 79.8991394 C-2.39149142 77.03542533 -2.37786625 74.17227546 -2.36328125 71.30859375 C-2.3627628 69.32227072 -2.36327992 67.33594716 -2.36479187 65.34962463 C-2.36470211 61.18588608 -2.35426404 57.022341 -2.33618164 52.85864258 C-2.31347964 47.51278034 -2.31295263 42.16720056 -2.31969929 36.82130337 C-2.32303515 32.71988907 -2.31641665 28.61853956 -2.30657005 24.51713753 C-2.30271226 22.54549562 -2.30157222 20.57384651 -2.3031559 18.60220146 C-2.30352536 15.85111542 -2.29094039 13.10039633 -2.2746582 10.34936523 C-2.27713562 9.52905319 -2.27961304 8.70874115 -2.28216553 7.86357117 C-2.22874241 2.22874241 -2.22874241 2.22874241 0 0 Z " fill="#F6AE4D" transform="translate(76,36)"/>
<path d="M0 0 C3.96 0 7.92 0 12 0 C12 30.69 12 61.38 12 93 C17.28 93 22.56 93 28 93 C28 93.33 28 93.66 28 94 C23.54172074 94.0578304 19.0835372 94.09353855 14.625 94.125 C13.35398438 94.14175781 12.08296875 94.15851563 10.7734375 94.17578125 C9.56171875 94.18222656 8.35 94.18867188 7.1015625 94.1953125 C5.98088379 94.20578613 4.86020508 94.21625977 3.70556641 94.22705078 C1 94 1 94 -1 92 C-1.19349721 89.11325756 -1.26218751 86.32279896 -1.24291992 83.43530273 C-1.24481827 82.54904205 -1.24671661 81.66278137 -1.24867249 80.74966431 C-1.25238685 77.81088505 -1.24166746 74.87235116 -1.23046875 71.93359375 C-1.22927731 69.89860564 -1.22882371 67.86361698 -1.2290802 65.82862854 C-1.22751424 61.56060349 -1.21921538 57.29266219 -1.20581055 53.0246582 C-1.18880979 47.54084488 -1.18499644 42.0571236 -1.18575573 36.57328701 C-1.18548444 32.37070326 -1.18001004 28.16813983 -1.17275429 23.96556282 C-1.16956172 21.94285295 -1.16759885 19.92014077 -1.16686058 17.89742851 C-1.16470383 15.07667962 -1.1559744 12.25603039 -1.14526367 9.43530273 C-1.14571686 8.59112289 -1.14617004 7.74694305 -1.14663696 6.87718201 C-1.11447425 1.11447425 -1.11447425 1.11447425 0 0 Z " fill="#FCB24F" transform="translate(204,36)"/>
<path d="M0 0 C3.63 0 7.26 0 11 0 C11 30.69 11 61.38 11 93 C16.61 93 22.22 93 28 93 C28 93.33 28 93.66 28 94 C23.56262288 94.08690253 19.12546366 94.14035926 14.6875 94.1875 C12.79354492 94.22520508 12.79354492 94.22520508 10.86132812 94.26367188 C9.65283203 94.27333984 8.44433594 94.28300781 7.19921875 94.29296875 C6.08377686 94.3086792 4.96833496 94.32438965 3.8190918 94.34057617 C0.58807045 93.95023454 -0.03859168 93.49194385 -2 91 C-2.29105939 88.10195048 -2.39938885 85.41964565 -2.37231445 82.52124023 C-2.37596512 81.65594696 -2.37961578 80.79065369 -2.38337708 79.8991394 C-2.39149142 77.03542533 -2.37786625 74.17227546 -2.36328125 71.30859375 C-2.3627628 69.32227072 -2.36327992 67.33594716 -2.36479187 65.34962463 C-2.36470211 61.18588608 -2.35426404 57.022341 -2.33618164 52.85864258 C-2.31347964 47.51278034 -2.31295263 42.16720056 -2.31969929 36.82130337 C-2.32303515 32.71988907 -2.31641665 28.61853956 -2.30657005 24.51713753 C-2.30271226 22.54549562 -2.30157222 20.57384651 -2.3031559 18.60220146 C-2.30352536 15.85111542 -2.29094039 13.10039633 -2.2746582 10.34936523 C-2.27713562 9.52905319 -2.27961304 8.70874115 -2.28216553 7.86357117 C-2.22874241 2.22874241 -2.22874241 2.22874241 0 0 Z " fill="#FCB24F" transform="translate(333,36)"/>
<path d="M0 0 C1.08384727 0.00848969 1.08384727 0.00848969 2.18959045 0.01715088 C4.47215211 0.03934243 6.75307823 0.08949951 9.03515625 0.140625 C10.59307611 0.16071256 12.15102085 0.17895936 13.70898438 0.1953125 C17.50582775 0.2391497 21.30146582 0.30805079 25.09765625 0.390625 C25.09765625 0.720625 25.09765625 1.050625 25.09765625 1.390625 C11.73265625 1.885625 11.73265625 1.885625 -1.90234375 2.390625 C-4.59865812 7.78325375 -5.2796093 9.36989873 -5.3347168 14.94677734 C-5.35451096 16.22765228 -5.37430511 17.50852722 -5.3946991 18.82821655 C-5.40146733 20.21099704 -5.40791437 21.59377912 -5.4140625 22.9765625 C-5.43092275 24.4028985 -5.4490748 25.82921976 -5.46846008 27.25552368 C-5.51582063 30.99382929 -5.54571968 34.73207512 -5.57189941 38.47058105 C-5.60177576 42.29170532 -5.64828163 46.11262394 -5.69335938 49.93359375 C-5.77923376 57.41918607 -5.84511035 64.90474887 -5.90234375 72.390625 C-10.19234375 72.390625 -14.48234375 72.390625 -18.90234375 72.390625 C-18.99292898 64.55813814 -19.06622268 56.72594063 -19.10959244 48.89307308 C-19.13041421 45.25542075 -19.15863107 41.61814724 -19.20410156 37.98071289 C-19.24775509 34.46639375 -19.27152151 30.95243759 -19.28185272 27.43786812 C-19.29277507 25.45316205 -19.32397003 23.46860079 -19.35552979 21.4841156 C-19.35844712 9.69656193 -19.35844712 9.69656193 -14.90234375 4.390625 C-10.32290328 0.57577401 -5.89249727 -0.17741057 0 0 Z " fill="#C83740" transform="translate(33.90234375,100.609375)"/>
</svg>
